<?xml version="1.0" encoding="utf-8" standalone="no"?>
<!DOCTYPE svg PUBLIC "-//W3C//DTD SVG 1.1//EN"
  "http://www.w3.org/Graphics/SVG/1.1/DTD/svg11.dtd">
<!-- Created with matplotlib (http://matplotlib.org/) -->
<svg height="492pt" version="1.1" viewBox="0 0 724 492" width="724pt" xmlns="http://www.w3.org/2000/svg" xmlns:xlink="http://www.w3.org/1999/xlink">
 <defs>
  <style type="text/css">
*{stroke-linecap:butt;stroke-linejoin:round;}
  </style>
 </defs>
 <g id="figure_1">
  <g id="patch_1">
   <path d="M 0 492.075469 
L 724.08125 492.075469 
L 724.08125 0 
L 0 0 
z
" style="fill:#ffffff;"/>
  </g>
  <g id="axes_1">
   <g id="patch_2">
    <path d="M 43.78125 212.599219 
L 713.38125 212.599219 
L 713.38125 10.999219 
L 43.78125 10.999219 
z
" style="fill:#ffffff;"/>
   </g>
   <g id="matplotlib.axis_1">
    <g id="xtick_1">
     <g id="line2d_1">
      <defs>
       <path d="M 0 0 
L 0 3.5 
" id="mdfb31de47e" style="stroke:#000000;stroke-width:0.8;"/>
      </defs>
      <g>
       <use style="stroke:#000000;stroke-width:0.8;" x="43.78125" xlink:href="#mdfb31de47e" y="212.599219"/>
      </g>
     </g>
     <g id="text_1">
      <!-- 0 -->
      <defs>
       <path d="M 31.78125 66.40625 
Q 24.171875 66.40625 20.328125 58.90625 
Q 16.5 51.421875 16.5 36.375 
Q 16.5 21.390625 20.328125 13.890625 
Q 24.171875 6.390625 31.78125 6.390625 
Q 39.453125 6.390625 43.28125 13.890625 
Q 47.125 21.390625 47.125 36.375 
Q 47.125 51.421875 43.28125 58.90625 
Q 39.453125 66.40625 31.78125 66.40625 
z
M 31.78125 74.21875 
Q 44.046875 74.21875 50.515625 64.515625 
Q 56.984375 54.828125 56.984375 36.375 
Q 56.984375 17.96875 50.515625 8.265625 
Q 44.046875 -1.421875 31.78125 -1.421875 
Q 19.53125 -1.421875 13.0625 8.265625 
Q 6.59375 17.96875 6.59375 36.375 
Q 6.59375 54.828125 13.0625 64.515625 
Q 19.53125 74.21875 31.78125 74.21875 
z
" id="DejaVuSans-30"/>
      </defs>
      <g transform="translate(40.6 227.197656)scale(0.1 -0.1)">
       <use xlink:href="#DejaVuSans-30"/>
      </g>
     </g>
    </g>
    <g id="xtick_2">
     <g id="line2d_2">
      <g>
       <use style="stroke:#000000;stroke-width:0.8;" x="165.526705" xlink:href="#mdfb31de47e" y="212.599219"/>
      </g>
     </g>
     <g id="text_2">
      <!-- 2 -->
      <defs>
       <path d="M 19.1875 8.296875 
L 53.609375 8.296875 
L 53.609375 0 
L 7.328125 0 
L 7.328125 8.296875 
Q 12.9375 14.109375 22.625 23.890625 
Q 32.328125 33.6875 34.8125 36.53125 
Q 39.546875 41.84375 41.421875 45.53125 
Q 43.3125 49.21875 43.3125 52.78125 
Q 43.3125 58.59375 39.234375 62.25 
Q 35.15625 65.921875 28.609375 65.921875 
Q 23.96875 65.921875 18.8125 64.3125 
Q 13.671875 62.703125 7.8125 59.421875 
L 7.8125 69.390625 
Q 13.765625 71.78125 18.9375 73 
Q 24.125 74.21875 28.421875 74.21875 
Q 39.75 74.21875 46.484375 68.546875 
Q 53.21875 62.890625 53.21875 53.421875 
Q 53.21875 48.921875 51.53125 44.890625 
Q 49.859375 40.875 45.40625 35.40625 
Q 44.1875 33.984375 37.640625 27.21875 
Q 31.109375 20.453125 19.1875 8.296875 
z
" id="DejaVuSans-32"/>
      </defs>
      <g transform="translate(162.345455 227.197656)scale(0.1 -0.1)">
       <use xlink:href="#DejaVuSans-32"/>
      </g>
     </g>
    </g>
    <g id="xtick_3">
     <g id="line2d_3">
      <g>
       <use style="stroke:#000000;stroke-width:0.8;" x="287.272159" xlink:href="#mdfb31de47e" y="212.599219"/>
      </g>
     </g>
     <g id="text_3">
      <!-- 4 -->
      <defs>
       <path d="M 37.796875 64.3125 
L 12.890625 25.390625 
L 37.796875 25.390625 
z
M 35.203125 72.90625 
L 47.609375 72.90625 
L 47.609375 25.390625 
L 58.015625 25.390625 
L 58.015625 17.1875 
L 47.609375 17.1875 
L 47.609375 0 
L 37.796875 0 
L 37.796875 17.1875 
L 4.890625 17.1875 
L 4.890625 26.703125 
z
" id="DejaVuSans-34"/>
      </defs>
      <g transform="translate(284.090909 227.197656)scale(0.1 -0.1)">
       <use xlink:href="#DejaVuSans-34"/>
      </g>
     </g>
    </g>
    <g id="xtick_4">
     <g id="line2d_4">
      <g>
       <use style="stroke:#000000;stroke-width:0.8;" x="409.017614" xlink:href="#mdfb31de47e" y="212.599219"/>
      </g>
     </g>
     <g id="text_4">
      <!-- 6 -->
      <defs>
       <path d="M 33.015625 40.375 
Q 26.375 40.375 22.484375 35.828125 
Q 18.609375 31.296875 18.609375 23.390625 
Q 18.609375 15.53125 22.484375 10.953125 
Q 26.375 6.390625 33.015625 6.390625 
Q 39.65625 6.390625 43.53125 10.953125 
Q 47.40625 15.53125 47.40625 23.390625 
Q 47.40625 31.296875 43.53125 35.828125 
Q 39.65625 40.375 33.015625 40.375 
z
M 52.59375 71.296875 
L 52.59375 62.3125 
Q 48.875 64.0625 45.09375 64.984375 
Q 41.3125 65.921875 37.59375 65.921875 
Q 27.828125 65.921875 22.671875 59.328125 
Q 17.53125 52.734375 16.796875 39.40625 
Q 19.671875 43.65625 24.015625 45.921875 
Q 28.375 48.1875 33.59375 48.1875 
Q 44.578125 48.1875 50.953125 41.515625 
Q 57.328125 34.859375 57.328125 23.390625 
Q 57.328125 12.15625 50.6875 5.359375 
Q 44.046875 -1.421875 33.015625 -1.421875 
Q 20.359375 -1.421875 13.671875 8.265625 
Q 6.984375 17.96875 6.984375 36.375 
Q 6.984375 53.65625 15.1875 63.9375 
Q 23.390625 74.21875 37.203125 74.21875 
Q 40.921875 74.21875 44.703125 73.484375 
Q 48.484375 72.75 52.59375 71.296875 
z
" id="DejaVuSans-36"/>
      </defs>
      <g transform="translate(405.836364 227.197656)scale(0.1 -0.1)">
       <use xlink:href="#DejaVuSans-36"/>
      </g>
     </g>
    </g>
    <g id="xtick_5">
     <g id="line2d_5">
      <g>
       <use style="stroke:#000000;stroke-width:0.8;" x="530.763068" xlink:href="#mdfb31de47e" y="212.599219"/>
      </g>
     </g>
     <g id="text_5">
      <!-- 8 -->
      <defs>
       <path d="M 31.78125 34.625 
Q 24.75 34.625 20.71875 30.859375 
Q 16.703125 27.09375 16.703125 20.515625 
Q 16.703125 13.921875 20.71875 10.15625 
Q 24.75 6.390625 31.78125 6.390625 
Q 38.8125 6.390625 42.859375 10.171875 
Q 46.921875 13.96875 46.921875 20.515625 
Q 46.921875 27.09375 42.890625 30.859375 
Q 38.875 34.625 31.78125 34.625 
z
M 21.921875 38.8125 
Q 15.578125 40.375 12.03125 44.71875 
Q 8.5 49.078125 8.5 55.328125 
Q 8.5 64.0625 14.71875 69.140625 
Q 20.953125 74.21875 31.78125 74.21875 
Q 42.671875 74.21875 48.875 69.140625 
Q 55.078125 64.0625 55.078125 55.328125 
Q 55.078125 49.078125 51.53125 44.71875 
Q 48 40.375 41.703125 38.8125 
Q 48.828125 37.15625 52.796875 32.3125 
Q 56.78125 27.484375 56.78125 20.515625 
Q 56.78125 9.90625 50.3125 4.234375 
Q 43.84375 -1.421875 31.78125 -1.421875 
Q 19.734375 -1.421875 13.25 4.234375 
Q 6.78125 9.90625 6.78125 20.515625 
Q 6.78125 27.484375 10.78125 32.3125 
Q 14.796875 37.15625 21.921875 38.8125 
z
M 18.3125 54.390625 
Q 18.3125 48.734375 21.84375 45.5625 
Q 25.390625 42.390625 31.78125 42.390625 
Q 38.140625 42.390625 41.71875 45.5625 
Q 45.3125 48.734375 45.3125 54.390625 
Q 45.3125 60.0625 41.71875 63.234375 
Q 38.140625 66.40625 31.78125 66.40625 
Q 25.390625 66.40625 21.84375 63.234375 
Q 18.3125 60.0625 18.3125 54.390625 
z
" id="DejaVuSans-38"/>
      </defs>
      <g transform="translate(527.581818 227.197656)scale(0.1 -0.1)">
       <use xlink:href="#DejaVuSans-38"/>
      </g>
     </g>
    </g>
    <g id="xtick_6">
     <g id="line2d_6">
      <g>
       <use style="stroke:#000000;stroke-width:0.8;" x="652.508523" xlink:href="#mdfb31de47e" y="212.599219"/>
      </g>
     </g>
     <g id="text_6">
      <!-- 10 -->
      <defs>
       <path d="M 12.40625 8.296875 
L 28.515625 8.296875 
L 28.515625 63.921875 
L 10.984375 60.40625 
L 10.984375 69.390625 
L 28.421875 72.90625 
L 38.28125 72.90625 
L 38.28125 8.296875 
L 54.390625 8.296875 
L 54.390625 0 
L 12.40625 0 
z
" id="DejaVuSans-31"/>
      </defs>
      <g transform="translate(646.146023 227.197656)scale(0.1 -0.1)">
       <use xlink:href="#DejaVuSans-31"/>
       <use x="63.623047" xlink:href="#DejaVuSans-30"/>
      </g>
     </g>
    </g>
   </g>
   <g id="matplotlib.axis_2">
    <g id="ytick_1">
     <g id="line2d_7">
      <defs>
       <path d="M 0 0 
L -3.5 0 
" id="m499f1a9439" style="stroke:#000000;stroke-width:0.8;"/>
      </defs>
      <g>
       <use style="stroke:#000000;stroke-width:0.8;" x="43.78125" xlink:href="#m499f1a9439" y="212.599219"/>
      </g>
     </g>
     <g id="text_7">
      <!-- 0.4 -->
      <defs>
       <path d="M 10.6875 12.40625 
L 21 12.40625 
L 21 0 
L 10.6875 0 
z
" id="DejaVuSans-2e"/>
      </defs>
      <g transform="translate(20.878125 216.398437)scale(0.1 -0.1)">
       <use xlink:href="#DejaVuSans-30"/>
       <use x="63.623047" xlink:href="#DejaVuSans-2e"/>
       <use x="95.410156" xlink:href="#DejaVuSans-34"/>
      </g>
     </g>
    </g>
    <g id="ytick_2">
     <g id="line2d_8">
      <g>
       <use style="stroke:#000000;stroke-width:0.8;" x="43.78125" xlink:href="#m499f1a9439" y="178.999219"/>
      </g>
     </g>
     <g id="text_8">
      <!-- 0.5 -->
      <defs>
       <path d="M 10.796875 72.90625 
L 49.515625 72.90625 
L 49.515625 64.59375 
L 19.828125 64.59375 
L 19.828125 46.734375 
Q 21.96875 47.46875 24.109375 47.828125 
Q 26.265625 48.1875 28.421875 48.1875 
Q 40.625 48.1875 47.75 41.5 
Q 54.890625 34.8125 54.890625 23.390625 
Q 54.890625 11.625 47.5625 5.09375 
Q 40.234375 -1.421875 26.90625 -1.421875 
Q 22.3125 -1.421875 17.546875 -0.640625 
Q 12.796875 0.140625 7.71875 1.703125 
L 7.71875 11.625 
Q 12.109375 9.234375 16.796875 8.0625 
Q 21.484375 6.890625 26.703125 6.890625 
Q 35.15625 6.890625 40.078125 11.328125 
Q 45.015625 15.765625 45.015625 23.390625 
Q 45.015625 31 40.078125 35.4375 
Q 35.15625 39.890625 26.703125 39.890625 
Q 22.75 39.890625 18.8125 39.015625 
Q 14.890625 38.140625 10.796875 36.28125 
z
" id="DejaVuSans-35"/>
      </defs>
      <g transform="translate(20.878125 182.798437)scale(0.1 -0.1)">
       <use xlink:href="#DejaVuSans-30"/>
       <use x="63.623047" xlink:href="#DejaVuSans-2e"/>
       <use x="95.410156" xlink:href="#DejaVuSans-35"/>
      </g>
     </g>
    </g>
    <g id="ytick_3">
     <g id="line2d_9">
      <g>
       <use style="stroke:#000000;stroke-width:0.8;" x="43.78125" xlink:href="#m499f1a9439" y="145.399219"/>
      </g>
     </g>
     <g id="text_9">
      <!-- 0.6 -->
      <g transform="translate(20.878125 149.198437)scale(0.1 -0.1)">
       <use xlink:href="#DejaVuSans-30"/>
       <use x="63.623047" xlink:href="#DejaVuSans-2e"/>
       <use x="95.410156" xlink:href="#DejaVuSans-36"/>
      </g>
     </g>
    </g>
    <g id="ytick_4">
     <g id="line2d_10">
      <g>
       <use style="stroke:#000000;stroke-width:0.8;" x="43.78125" xlink:href="#m499f1a9439" y="111.799219"/>
      </g>
     </g>
     <g id="text_10">
      <!-- 0.7 -->
      <defs>
       <path d="M 8.203125 72.90625 
L 55.078125 72.90625 
L 55.078125 68.703125 
L 28.609375 0 
L 18.3125 0 
L 43.21875 64.59375 
L 8.203125 64.59375 
z
" id="DejaVuSans-37"/>
      </defs>
      <g transform="translate(20.878125 115.598437)scale(0.1 -0.1)">
       <use xlink:href="#DejaVuSans-30"/>
       <use x="63.623047" xlink:href="#DejaVuSans-2e"/>
       <use x="95.410156" xlink:href="#DejaVuSans-37"/>
      </g>
     </g>
    </g>
    <g id="ytick_5">
     <g id="line2d_11">
      <g>
       <use style="stroke:#000000;stroke-width:0.8;" x="43.78125" xlink:href="#m499f1a9439" y="78.199219"/>
      </g>
     </g>
     <g id="text_11">
      <!-- 0.8 -->
      <g transform="translate(20.878125 81.998437)scale(0.1 -0.1)">
       <use xlink:href="#DejaVuSans-30"/>
       <use x="63.623047" xlink:href="#DejaVuSans-2e"/>
       <use x="95.410156" xlink:href="#DejaVuSans-38"/>
      </g>
     </g>
    </g>
    <g id="ytick_6">
     <g id="line2d_12">
      <g>
       <use style="stroke:#000000;stroke-width:0.8;" x="43.78125" xlink:href="#m499f1a9439" y="44.599219"/>
      </g>
     </g>
     <g id="text_12">
      <!-- 0.9 -->
      <defs>
       <path d="M 10.984375 1.515625 
L 10.984375 10.5 
Q 14.703125 8.734375 18.5 7.8125 
Q 22.3125 6.890625 25.984375 6.890625 
Q 35.75 6.890625 40.890625 13.453125 
Q 46.046875 20.015625 46.78125 33.40625 
Q 43.953125 29.203125 39.59375 26.953125 
Q 35.25 24.703125 29.984375 24.703125 
Q 19.046875 24.703125 12.671875 31.3125 
Q 6.296875 37.9375 6.296875 49.421875 
Q 6.296875 60.640625 12.9375 67.421875 
Q 19.578125 74.21875 30.609375 74.21875 
Q 43.265625 74.21875 49.921875 64.515625 
Q 56.59375 54.828125 56.59375 36.375 
Q 56.59375 19.140625 48.40625 8.859375 
Q 40.234375 -1.421875 26.421875 -1.421875 
Q 22.703125 -1.421875 18.890625 -0.6875 
Q 15.09375 0.046875 10.984375 1.515625 
z
M 30.609375 32.421875 
Q 37.25 32.421875 41.125 36.953125 
Q 45.015625 41.5 45.015625 49.421875 
Q 45.015625 57.28125 41.125 61.84375 
Q 37.25 66.40625 30.609375 66.40625 
Q 23.96875 66.40625 20.09375 61.84375 
Q 16.21875 57.28125 16.21875 49.421875 
Q 16.21875 41.5 20.09375 36.953125 
Q 23.96875 32.421875 30.609375 32.421875 
z
" id="DejaVuSans-39"/>
      </defs>
      <g transform="translate(20.878125 48.398437)scale(0.1 -0.1)">
       <use xlink:href="#DejaVuSans-30"/>
       <use x="63.623047" xlink:href="#DejaVuSans-2e"/>
       <use x="95.410156" xlink:href="#DejaVuSans-39"/>
      </g>
     </g>
    </g>
    <g id="ytick_7">
     <g id="line2d_13">
      <g>
       <use style="stroke:#000000;stroke-width:0.8;" x="43.78125" xlink:href="#m499f1a9439" y="10.999219"/>
      </g>
     </g>
     <g id="text_13">
      <!-- 1.0 -->
      <g transform="translate(20.878125 14.798437)scale(0.1 -0.1)">
       <use xlink:href="#DejaVuSans-31"/>
       <use x="63.623047" xlink:href="#DejaVuSans-2e"/>
       <use x="95.410156" xlink:href="#DejaVuSans-30"/>
      </g>
     </g>
    </g>
    <g id="text_14">
     <!-- Prediction accuracy -->
     <defs>
      <path d="M 19.671875 64.796875 
L 19.671875 37.40625 
L 32.078125 37.40625 
Q 38.96875 37.40625 42.71875 40.96875 
Q 46.484375 44.53125 46.484375 51.125 
Q 46.484375 57.671875 42.71875 61.234375 
Q 38.96875 64.796875 32.078125 64.796875 
z
M 9.8125 72.90625 
L 32.078125 72.90625 
Q 44.34375 72.90625 50.609375 67.359375 
Q 56.890625 61.8125 56.890625 51.125 
Q 56.890625 40.328125 50.609375 34.8125 
Q 44.34375 29.296875 32.078125 29.296875 
L 19.671875 29.296875 
L 19.671875 0 
L 9.8125 0 
z
" id="DejaVuSans-50"/>
      <path d="M 41.109375 46.296875 
Q 39.59375 47.171875 37.8125 47.578125 
Q 36.03125 48 33.890625 48 
Q 26.265625 48 22.1875 43.046875 
Q 18.109375 38.09375 18.109375 28.8125 
L 18.109375 0 
L 9.078125 0 
L 9.078125 54.6875 
L 18.109375 54.6875 
L 18.109375 46.1875 
Q 20.953125 51.171875 25.484375 53.578125 
Q 30.03125 56 36.53125 56 
Q 37.453125 56 38.578125 55.875 
Q 39.703125 55.765625 41.0625 55.515625 
z
" id="DejaVuSans-72"/>
      <path d="M 56.203125 29.59375 
L 56.203125 25.203125 
L 14.890625 25.203125 
Q 15.484375 15.921875 20.484375 11.0625 
Q 25.484375 6.203125 34.421875 6.203125 
Q 39.59375 6.203125 44.453125 7.46875 
Q 49.3125 8.734375 54.109375 11.28125 
L 54.109375 2.78125 
Q 49.265625 0.734375 44.1875 -0.34375 
Q 39.109375 -1.421875 33.890625 -1.421875 
Q 20.796875 -1.421875 13.15625 6.1875 
Q 5.515625 13.8125 5.515625 26.8125 
Q 5.515625 40.234375 12.765625 48.109375 
Q 20.015625 56 32.328125 56 
Q 43.359375 56 49.78125 48.890625 
Q 56.203125 41.796875 56.203125 29.59375 
z
M 47.21875 32.234375 
Q 47.125 39.59375 43.09375 43.984375 
Q 39.0625 48.390625 32.421875 48.390625 
Q 24.90625 48.390625 20.390625 44.140625 
Q 15.875 39.890625 15.1875 32.171875 
z
" id="DejaVuSans-65"/>
      <path d="M 45.40625 46.390625 
L 45.40625 75.984375 
L 54.390625 75.984375 
L 54.390625 0 
L 45.40625 0 
L 45.40625 8.203125 
Q 42.578125 3.328125 38.25 0.953125 
Q 33.9375 -1.421875 27.875 -1.421875 
Q 17.96875 -1.421875 11.734375 6.484375 
Q 5.515625 14.40625 5.515625 27.296875 
Q 5.515625 40.1875 11.734375 48.09375 
Q 17.96875 56 27.875 56 
Q 33.9375 56 38.25 53.625 
Q 42.578125 51.265625 45.40625 46.390625 
z
M 14.796875 27.296875 
Q 14.796875 17.390625 18.875 11.75 
Q 22.953125 6.109375 30.078125 6.109375 
Q 37.203125 6.109375 41.296875 11.75 
Q 45.40625 17.390625 45.40625 27.296875 
Q 45.40625 37.203125 41.296875 42.84375 
Q 37.203125 48.484375 30.078125 48.484375 
Q 22.953125 48.484375 18.875 42.84375 
Q 14.796875 37.203125 14.796875 27.296875 
z
" id="DejaVuSans-64"/>
      <path d="M 9.421875 54.6875 
L 18.40625 54.6875 
L 18.40625 0 
L 9.421875 0 
z
M 9.421875 75.984375 
L 18.40625 75.984375 
L 18.40625 64.59375 
L 9.421875 64.59375 
z
" id="DejaVuSans-69"/>
      <path d="M 48.78125 52.59375 
L 48.78125 44.1875 
Q 44.96875 46.296875 41.140625 47.34375 
Q 37.3125 48.390625 33.40625 48.390625 
Q 24.65625 48.390625 19.8125 42.84375 
Q 14.984375 37.3125 14.984375 27.296875 
Q 14.984375 17.28125 19.8125 11.734375 
Q 24.65625 6.203125 33.40625 6.203125 
Q 37.3125 6.203125 41.140625 7.25 
Q 44.96875 8.296875 48.78125 10.40625 
L 48.78125 2.09375 
Q 45.015625 0.34375 40.984375 -0.53125 
Q 36.96875 -1.421875 32.421875 -1.421875 
Q 20.0625 -1.421875 12.78125 6.34375 
Q 5.515625 14.109375 5.515625 27.296875 
Q 5.515625 40.671875 12.859375 48.328125 
Q 20.21875 56 33.015625 56 
Q 37.15625 56 41.109375 55.140625 
Q 45.0625 54.296875 48.78125 52.59375 
z
" id="DejaVuSans-63"/>
      <path d="M 18.3125 70.21875 
L 18.3125 54.6875 
L 36.8125 54.6875 
L 36.8125 47.703125 
L 18.3125 47.703125 
L 18.3125 18.015625 
Q 18.3125 11.328125 20.140625 9.421875 
Q 21.96875 7.515625 27.59375 7.515625 
L 36.8125 7.515625 
L 36.8125 0 
L 27.59375 0 
Q 17.1875 0 13.234375 3.875 
Q 9.28125 7.765625 9.28125 18.015625 
L 9.28125 47.703125 
L 2.6875 47.703125 
L 2.6875 54.6875 
L 9.28125 54.6875 
L 9.28125 70.21875 
z
" id="DejaVuSans-74"/>
      <path d="M 30.609375 48.390625 
Q 23.390625 48.390625 19.1875 42.75 
Q 14.984375 37.109375 14.984375 27.296875 
Q 14.984375 17.484375 19.15625 11.84375 
Q 23.34375 6.203125 30.609375 6.203125 
Q 37.796875 6.203125 41.984375 11.859375 
Q 46.1875 17.53125 46.1875 27.296875 
Q 46.1875 37.015625 41.984375 42.703125 
Q 37.796875 48.390625 30.609375 48.390625 
z
M 30.609375 56 
Q 42.328125 56 49.015625 48.375 
Q 55.71875 40.765625 55.71875 27.296875 
Q 55.71875 13.875 49.015625 6.21875 
Q 42.328125 -1.421875 30.609375 -1.421875 
Q 18.84375 -1.421875 12.171875 6.21875 
Q 5.515625 13.875 5.515625 27.296875 
Q 5.515625 40.765625 12.171875 48.375 
Q 18.84375 56 30.609375 56 
z
" id="DejaVuSans-6f"/>
      <path d="M 54.890625 33.015625 
L 54.890625 0 
L 45.90625 0 
L 45.90625 32.71875 
Q 45.90625 40.484375 42.875 44.328125 
Q 39.84375 48.1875 33.796875 48.1875 
Q 26.515625 48.1875 22.3125 43.546875 
Q 18.109375 38.921875 18.109375 30.90625 
L 18.109375 0 
L 9.078125 0 
L 9.078125 54.6875 
L 18.109375 54.6875 
L 18.109375 46.1875 
Q 21.34375 51.125 25.703125 53.5625 
Q 30.078125 56 35.796875 56 
Q 45.21875 56 50.046875 50.171875 
Q 54.890625 44.34375 54.890625 33.015625 
z
" id="DejaVuSans-6e"/>
      <path id="DejaVuSans-20"/>
      <path d="M 34.28125 27.484375 
Q 23.390625 27.484375 19.1875 25 
Q 14.984375 22.515625 14.984375 16.5 
Q 14.984375 11.71875 18.140625 8.90625 
Q 21.296875 6.109375 26.703125 6.109375 
Q 34.1875 6.109375 38.703125 11.40625 
Q 43.21875 16.703125 43.21875 25.484375 
L 43.21875 27.484375 
z
M 52.203125 31.203125 
L 52.203125 0 
L 43.21875 0 
L 43.21875 8.296875 
Q 40.140625 3.328125 35.546875 0.953125 
Q 30.953125 -1.421875 24.3125 -1.421875 
Q 15.921875 -1.421875 10.953125 3.296875 
Q 6 8.015625 6 15.921875 
Q 6 25.140625 12.171875 29.828125 
Q 18.359375 34.515625 30.609375 34.515625 
L 43.21875 34.515625 
L 43.21875 35.40625 
Q 43.21875 41.609375 39.140625 45 
Q 35.0625 48.390625 27.6875 48.390625 
Q 23 48.390625 18.546875 47.265625 
Q 14.109375 46.140625 10.015625 43.890625 
L 10.015625 52.203125 
Q 14.9375 54.109375 19.578125 55.046875 
Q 24.21875 56 28.609375 56 
Q 40.484375 56 46.34375 49.84375 
Q 52.203125 43.703125 52.203125 31.203125 
z
" id="DejaVuSans-61"/>
      <path d="M 8.5 21.578125 
L 8.5 54.6875 
L 17.484375 54.6875 
L 17.484375 21.921875 
Q 17.484375 14.15625 20.5 10.265625 
Q 23.53125 6.390625 29.59375 6.390625 
Q 36.859375 6.390625 41.078125 11.03125 
Q 45.3125 15.671875 45.3125 23.6875 
L 45.3125 54.6875 
L 54.296875 54.6875 
L 54.296875 0 
L 45.3125 0 
L 45.3125 8.40625 
Q 42.046875 3.421875 37.71875 1 
Q 33.40625 -1.421875 27.6875 -1.421875 
Q 18.265625 -1.421875 13.375 4.4375 
Q 8.5 10.296875 8.5 21.578125 
z
M 31.109375 56 
z
" id="DejaVuSans-75"/>
      <path d="M 32.171875 -5.078125 
Q 28.375 -14.84375 24.75 -17.8125 
Q 21.140625 -20.796875 15.09375 -20.796875 
L 7.90625 -20.796875 
L 7.90625 -13.28125 
L 13.1875 -13.28125 
Q 16.890625 -13.28125 18.9375 -11.515625 
Q 21 -9.765625 23.484375 -3.21875 
L 25.09375 0.875 
L 2.984375 54.6875 
L 12.5 54.6875 
L 29.59375 11.921875 
L 46.6875 54.6875 
L 56.203125 54.6875 
z
" id="DejaVuSans-79"/>
     </defs>
     <g transform="translate(14.798438 160.982031)rotate(-90)scale(0.1 -0.1)">
      <use xlink:href="#DejaVuSans-50"/>
      <use x="60.287109" xlink:href="#DejaVuSans-72"/>
      <use x="101.369141" xlink:href="#DejaVuSans-65"/>
      <use x="162.892578" xlink:href="#DejaVuSans-64"/>
      <use x="226.369141" xlink:href="#DejaVuSans-69"/>
      <use x="254.152344" xlink:href="#DejaVuSans-63"/>
      <use x="309.132812" xlink:href="#DejaVuSans-74"/>
      <use x="348.341797" xlink:href="#DejaVuSans-69"/>
      <use x="376.125" xlink:href="#DejaVuSans-6f"/>
      <use x="437.306641" xlink:href="#DejaVuSans-6e"/>
      <use x="500.685547" xlink:href="#DejaVuSans-20"/>
      <use x="532.472656" xlink:href="#DejaVuSans-61"/>
      <use x="593.751953" xlink:href="#DejaVuSans-63"/>
      <use x="648.732422" xlink:href="#DejaVuSans-63"/>
      <use x="703.712891" xlink:href="#DejaVuSans-75"/>
      <use x="767.091797" xlink:href="#DejaVuSans-72"/>
      <use x="808.205078" xlink:href="#DejaVuSans-61"/>
      <use x="869.484375" xlink:href="#DejaVuSans-63"/>
      <use x="924.464844" xlink:href="#DejaVuSans-79"/>
     </g>
    </g>
   </g>
   <g id="line2d_14">
    <path clip-path="url(#pa537737fe9)" d="M 43.78125 113.418042 
L 104.653977 99.759219 
L 165.526705 75.61828 
L 226.399432 62.773764 
L 287.272159 10.999219 
L 348.144886 23.105101 
L 409.017614 24.249978 
L 469.890341 38.13768 
L 530.763068 30.839219 
L 591.635795 49.094734 
L 652.508523 31.845493 
L 713.38125 32.879219 
" style="fill:none;stroke:#1f77b4;stroke-linecap:square;stroke-width:1.5;"/>
    <defs>
     <path d="M 0 3 
C 0.795609 3 1.55874 2.683901 2.12132 2.12132 
C 2.683901 1.55874 3 0.795609 3 0 
C 3 -0.795609 2.683901 -1.55874 2.12132 -2.12132 
C 1.55874 -2.683901 0.795609 -3 0 -3 
C -0.795609 -3 -1.55874 -2.683901 -2.12132 -2.12132 
C -2.683901 -1.55874 -3 -0.795609 -3 0 
C -3 0.795609 -2.683901 1.55874 -2.12132 2.12132 
C -1.55874 2.683901 -0.795609 3 0 3 
z
" id="m3e8eab54e7" style="stroke:#1f77b4;"/>
    </defs>
    <g clip-path="url(#pa537737fe9)">
     <use style="fill:#1f77b4;stroke:#1f77b4;" x="43.78125" xlink:href="#m3e8eab54e7" y="113.418042"/>
     <use style="fill:#1f77b4;stroke:#1f77b4;" x="104.653977" xlink:href="#m3e8eab54e7" y="99.759219"/>
     <use style="fill:#1f77b4;stroke:#1f77b4;" x="165.526705" xlink:href="#m3e8eab54e7" y="75.61828"/>
     <use style="fill:#1f77b4;stroke:#1f77b4;" x="226.399432" xlink:href="#m3e8eab54e7" y="62.773764"/>
     <use style="fill:#1f77b4;stroke:#1f77b4;" x="287.272159" xlink:href="#m3e8eab54e7" y="10.999219"/>
     <use style="fill:#1f77b4;stroke:#1f77b4;" x="348.144886" xlink:href="#m3e8eab54e7" y="23.105101"/>
     <use style="fill:#1f77b4;stroke:#1f77b4;" x="409.017614" xlink:href="#m3e8eab54e7" y="24.249978"/>
     <use style="fill:#1f77b4;stroke:#1f77b4;" x="469.890341" xlink:href="#m3e8eab54e7" y="38.13768"/>
     <use style="fill:#1f77b4;stroke:#1f77b4;" x="530.763068" xlink:href="#m3e8eab54e7" y="30.839219"/>
     <use style="fill:#1f77b4;stroke:#1f77b4;" x="591.635795" xlink:href="#m3e8eab54e7" y="49.094734"/>
     <use style="fill:#1f77b4;stroke:#1f77b4;" x="652.508523" xlink:href="#m3e8eab54e7" y="31.845493"/>
     <use style="fill:#1f77b4;stroke:#1f77b4;" x="713.38125" xlink:href="#m3e8eab54e7" y="32.879219"/>
    </g>
   </g>
   <g id="line2d_15">
    <path clip-path="url(#pa537737fe9)" d="M 43.78125 166.301893 
L 104.653977 101.812552 
L 165.526705 101.093102 
L 226.399432 97.442855 
L 287.272159 24.759091 
L 348.144886 38.47765 
L 409.017614 37.696282 
L 469.890341 32.96845 
L 530.763068 34.039219 
L 591.635795 47.582839 
L 652.508523 51.170983 
L 713.38125 36.199219 
" style="fill:none;stroke:#ff7f0e;stroke-linecap:square;stroke-width:1.5;"/>
    <defs>
     <path d="M 0 -3 
L -3 3 
L 3 3 
z
" id="m186ad768b6" style="stroke:#ff7f0e;stroke-linejoin:miter;"/>
    </defs>
    <g clip-path="url(#pa537737fe9)">
     <use style="fill:#ff7f0e;stroke:#ff7f0e;stroke-linejoin:miter;" x="43.78125" xlink:href="#m186ad768b6" y="166.301893"/>
     <use style="fill:#ff7f0e;stroke:#ff7f0e;stroke-linejoin:miter;" x="104.653977" xlink:href="#m186ad768b6" y="101.812552"/>
     <use style="fill:#ff7f0e;stroke:#ff7f0e;stroke-linejoin:miter;" x="165.526705" xlink:href="#m186ad768b6" y="101.093102"/>
     <use style="fill:#ff7f0e;stroke:#ff7f0e;stroke-linejoin:miter;" x="226.399432" xlink:href="#m186ad768b6" y="97.442855"/>
     <use style="fill:#ff7f0e;stroke:#ff7f0e;stroke-linejoin:miter;" x="287.272159" xlink:href="#m186ad768b6" y="24.759091"/>
     <use style="fill:#ff7f0e;stroke:#ff7f0e;stroke-linejoin:miter;" x="348.144886" xlink:href="#m186ad768b6" y="38.47765"/>
     <use style="fill:#ff7f0e;stroke:#ff7f0e;stroke-linejoin:miter;" x="409.017614" xlink:href="#m186ad768b6" y="37.696282"/>
     <use style="fill:#ff7f0e;stroke:#ff7f0e;stroke-linejoin:miter;" x="469.890341" xlink:href="#m186ad768b6" y="32.96845"/>
     <use style="fill:#ff7f0e;stroke:#ff7f0e;stroke-linejoin:miter;" x="530.763068" xlink:href="#m186ad768b6" y="34.039219"/>
     <use style="fill:#ff7f0e;stroke:#ff7f0e;stroke-linejoin:miter;" x="591.635795" xlink:href="#m186ad768b6" y="47.582839"/>
     <use style="fill:#ff7f0e;stroke:#ff7f0e;stroke-linejoin:miter;" x="652.508523" xlink:href="#m186ad768b6" y="51.170983"/>
     <use style="fill:#ff7f0e;stroke:#ff7f0e;stroke-linejoin:miter;" x="713.38125" xlink:href="#m186ad768b6" y="36.199219"/>
    </g>
   </g>
   <g id="line2d_16">
    <path clip-path="url(#pa537737fe9)" d="M 43.78125 164.544459 
L 104.653977 114.599107 
L 165.526705 111.799219 
L 226.399432 137.610128 
L 287.272159 15.799315 
L 348.144886 22.638434 
L 409.017614 62.429546 
L 469.890341 60.53768 
L 530.763068 30.999219 
L 591.635795 52.838224 
L 652.508523 51.63765 
L 713.38125 41.879219 
" style="fill:none;stroke:#2ca02c;stroke-linecap:square;stroke-width:1.5;"/>
    <defs>
     <path d="M -3 3 
L 3 -3 
M -3 -3 
L 3 3 
" id="m4fcc5b4d3d" style="stroke:#2ca02c;"/>
    </defs>
    <g clip-path="url(#pa537737fe9)">
     <use style="fill:#2ca02c;stroke:#2ca02c;" x="43.78125" xlink:href="#m4fcc5b4d3d" y="164.544459"/>
     <use style="fill:#2ca02c;stroke:#2ca02c;" x="104.653977" xlink:href="#m4fcc5b4d3d" y="114.599107"/>
     <use style="fill:#2ca02c;stroke:#2ca02c;" x="165.526705" xlink:href="#m4fcc5b4d3d" y="111.799219"/>
     <use style="fill:#2ca02c;stroke:#2ca02c;" x="226.399432" xlink:href="#m4fcc5b4d3d" y="137.610128"/>
     <use style="fill:#2ca02c;stroke:#2ca02c;" x="287.272159" xlink:href="#m4fcc5b4d3d" y="15.799315"/>
     <use style="fill:#2ca02c;stroke:#2ca02c;" x="348.144886" xlink:href="#m4fcc5b4d3d" y="22.638434"/>
     <use style="fill:#2ca02c;stroke:#2ca02c;" x="409.017614" xlink:href="#m4fcc5b4d3d" y="62.429546"/>
     <use style="fill:#2ca02c;stroke:#2ca02c;" x="469.890341" xlink:href="#m4fcc5b4d3d" y="60.53768"/>
     <use style="fill:#2ca02c;stroke:#2ca02c;" x="530.763068" xlink:href="#m4fcc5b4d3d" y="30.999219"/>
     <use style="fill:#2ca02c;stroke:#2ca02c;" x="591.635795" xlink:href="#m4fcc5b4d3d" y="52.838224"/>
     <use style="fill:#2ca02c;stroke:#2ca02c;" x="652.508523" xlink:href="#m4fcc5b4d3d" y="51.63765"/>
     <use style="fill:#2ca02c;stroke:#2ca02c;" x="713.38125" xlink:href="#m4fcc5b4d3d" y="41.879219"/>
    </g>
   </g>
   <g id="line2d_17">
    <path clip-path="url(#pa537737fe9)" d="M 43.78125 152.103818 
L 104.653977 118.519219 
L 165.526705 73.801987 
L 226.399432 67.813764 
L 287.272159 15.799315 
L 348.144886 30.324709 
L 409.017614 52.380602 
L 469.890341 50.199219 
L 530.763068 24.279219 
L 591.635795 49.190808 
L 652.508523 40.278434 
L 713.38125 41.559219 
" style="fill:none;stroke:#d62728;stroke-linecap:square;stroke-width:1.5;"/>
    <defs>
     <path d="M 0 -3 
L -0.673542 -0.927051 
L -2.85317 -0.927051 
L -1.089814 0.354102 
L -1.763356 2.427051 
L -0 1.145898 
L 1.763356 2.427051 
L 1.089814 0.354102 
L 2.85317 -0.927051 
L 0.673542 -0.927051 
z
" id="mc2fdb3fb19" style="stroke:#d62728;stroke-linejoin:bevel;"/>
    </defs>
    <g clip-path="url(#pa537737fe9)">
     <use style="fill:#d62728;stroke:#d62728;stroke-linejoin:bevel;" x="43.78125" xlink:href="#mc2fdb3fb19" y="152.103818"/>
     <use style="fill:#d62728;stroke:#d62728;stroke-linejoin:bevel;" x="104.653977" xlink:href="#mc2fdb3fb19" y="118.519219"/>
     <use style="fill:#d62728;stroke:#d62728;stroke-linejoin:bevel;" x="165.526705" xlink:href="#mc2fdb3fb19" y="73.801987"/>
     <use style="fill:#d62728;stroke:#d62728;stroke-linejoin:bevel;" x="226.399432" xlink:href="#mc2fdb3fb19" y="67.813764"/>
     <use style="fill:#d62728;stroke:#d62728;stroke-linejoin:bevel;" x="287.272159" xlink:href="#mc2fdb3fb19" y="15.799315"/>
     <use style="fill:#d62728;stroke:#d62728;stroke-linejoin:bevel;" x="348.144886" xlink:href="#mc2fdb3fb19" y="30.324709"/>
     <use style="fill:#d62728;stroke:#d62728;stroke-linejoin:bevel;" x="409.017614" xlink:href="#mc2fdb3fb19" y="52.380602"/>
     <use style="fill:#d62728;stroke:#d62728;stroke-linejoin:bevel;" x="469.890341" xlink:href="#mc2fdb3fb19" y="50.199219"/>
     <use style="fill:#d62728;stroke:#d62728;stroke-linejoin:bevel;" x="530.763068" xlink:href="#mc2fdb3fb19" y="24.279219"/>
     <use style="fill:#d62728;stroke:#d62728;stroke-linejoin:bevel;" x="591.635795" xlink:href="#mc2fdb3fb19" y="49.190808"/>
     <use style="fill:#d62728;stroke:#d62728;stroke-linejoin:bevel;" x="652.508523" xlink:href="#mc2fdb3fb19" y="40.278434"/>
     <use style="fill:#d62728;stroke:#d62728;stroke-linejoin:bevel;" x="713.38125" xlink:href="#mc2fdb3fb19" y="41.559219"/>
    </g>
   </g>
   <g id="line2d_18">
    <path clip-path="url(#pa537737fe9)" d="M 43.78125 122.852053 
L 104.653977 183.759331 
L 165.526705 111.560323 
L 226.399432 154.868371 
L 287.272159 127.799203 
L 348.144886 38.916787 
L 409.017614 29.495443 
L 469.890341 76.476211 
L 530.763068 30.839347 
L 591.635795 62.591934 
L 652.508523 31.345885 
" style="fill:none;stroke:#9467bd;stroke-linecap:square;stroke-width:1.5;"/>
    <defs>
     <path d="M 0 1.5 
C 0.397805 1.5 0.77937 1.341951 1.06066 1.06066 
C 1.341951 0.77937 1.5 0.397805 1.5 0 
C 1.5 -0.397805 1.341951 -0.77937 1.06066 -1.06066 
C 0.77937 -1.341951 0.397805 -1.5 0 -1.5 
C -0.397805 -1.5 -0.77937 -1.341951 -1.06066 -1.06066 
C -1.341951 -0.77937 -1.5 -0.397805 -1.5 0 
C -1.5 0.397805 -1.341951 0.77937 -1.06066 1.06066 
C -0.77937 1.341951 -0.397805 1.5 0 1.5 
z
" id="mb691d2ac31" style="stroke:#9467bd;"/>
    </defs>
    <g clip-path="url(#pa537737fe9)">
     <use style="fill:#9467bd;stroke:#9467bd;" x="43.78125" xlink:href="#mb691d2ac31" y="122.852053"/>
     <use style="fill:#9467bd;stroke:#9467bd;" x="104.653977" xlink:href="#mb691d2ac31" y="183.759331"/>
     <use style="fill:#9467bd;stroke:#9467bd;" x="165.526705" xlink:href="#mb691d2ac31" y="111.560323"/>
     <use style="fill:#9467bd;stroke:#9467bd;" x="226.399432" xlink:href="#mb691d2ac31" y="154.868371"/>
     <use style="fill:#9467bd;stroke:#9467bd;" x="287.272159" xlink:href="#mb691d2ac31" y="127.799203"/>
     <use style="fill:#9467bd;stroke:#9467bd;" x="348.144886" xlink:href="#mb691d2ac31" y="38.916787"/>
     <use style="fill:#9467bd;stroke:#9467bd;" x="409.017614" xlink:href="#mb691d2ac31" y="29.495443"/>
     <use style="fill:#9467bd;stroke:#9467bd;" x="469.890341" xlink:href="#mb691d2ac31" y="76.476211"/>
     <use style="fill:#9467bd;stroke:#9467bd;" x="530.763068" xlink:href="#mb691d2ac31" y="30.839347"/>
     <use style="fill:#9467bd;stroke:#9467bd;" x="591.635795" xlink:href="#mb691d2ac31" y="62.591934"/>
     <use style="fill:#9467bd;stroke:#9467bd;" x="652.508523" xlink:href="#mb691d2ac31" y="31.345885"/>
    </g>
   </g>
   <g id="patch_3">
    <path d="M 43.78125 212.599219 
L 43.78125 10.999219 
" style="fill:none;stroke:#000000;stroke-linecap:square;stroke-linejoin:miter;stroke-width:0.8;"/>
   </g>
   <g id="patch_4">
    <path d="M 713.38125 212.599219 
L 713.38125 10.999219 
" style="fill:none;stroke:#000000;stroke-linecap:square;stroke-linejoin:miter;stroke-width:0.8;"/>
   </g>
   <g id="patch_5">
    <path d="M 43.78125 212.599219 
L 713.38125 212.599219 
" style="fill:none;stroke:#000000;stroke-linecap:square;stroke-linejoin:miter;stroke-width:0.8;"/>
   </g>
   <g id="patch_6">
    <path d="M 43.78125 10.999219 
L 713.38125 10.999219 
" style="fill:none;stroke:#000000;stroke-linecap:square;stroke-linejoin:miter;stroke-width:0.8;"/>
   </g>
   <g id="legend_1">
    <g id="patch_7">
     <path d="M 595.167187 207.599219 
L 706.38125 207.599219 
Q 708.38125 207.599219 708.38125 205.599219 
L 708.38125 132.652344 
Q 708.38125 130.652344 706.38125 130.652344 
L 595.167187 130.652344 
Q 593.167187 130.652344 593.167187 132.652344 
L 593.167187 205.599219 
Q 593.167187 207.599219 595.167187 207.599219 
z
" style="fill:#ffffff;opacity:0.8;stroke:#cccccc;stroke-linejoin:miter;"/>
    </g>
    <g id="line2d_19">
     <path d="M 597.167187 138.750781 
L 617.167187 138.750781 
" style="fill:none;stroke:#1f77b4;stroke-linecap:square;stroke-width:1.5;"/>
    </g>
    <g id="line2d_20">
     <g>
      <use style="fill:#1f77b4;stroke:#1f77b4;" x="607.167187" xlink:href="#m3e8eab54e7" y="138.750781"/>
     </g>
    </g>
    <g id="text_15">
     <!-- sfs_l21 -->
     <defs>
      <path d="M 44.28125 53.078125 
L 44.28125 44.578125 
Q 40.484375 46.53125 36.375 47.5 
Q 32.28125 48.484375 27.875 48.484375 
Q 21.1875 48.484375 17.84375 46.4375 
Q 14.5 44.390625 14.5 40.28125 
Q 14.5 37.15625 16.890625 35.375 
Q 19.28125 33.59375 26.515625 31.984375 
L 29.59375 31.296875 
Q 39.15625 29.25 43.1875 25.515625 
Q 47.21875 21.78125 47.21875 15.09375 
Q 47.21875 7.46875 41.1875 3.015625 
Q 35.15625 -1.421875 24.609375 -1.421875 
Q 20.21875 -1.421875 15.453125 -0.5625 
Q 10.6875 0.296875 5.421875 2 
L 5.421875 11.28125 
Q 10.40625 8.6875 15.234375 7.390625 
Q 20.0625 6.109375 24.8125 6.109375 
Q 31.15625 6.109375 34.5625 8.28125 
Q 37.984375 10.453125 37.984375 14.40625 
Q 37.984375 18.0625 35.515625 20.015625 
Q 33.0625 21.96875 24.703125 23.78125 
L 21.578125 24.515625 
Q 13.234375 26.265625 9.515625 29.90625 
Q 5.8125 33.546875 5.8125 39.890625 
Q 5.8125 47.609375 11.28125 51.796875 
Q 16.75 56 26.8125 56 
Q 31.78125 56 36.171875 55.265625 
Q 40.578125 54.546875 44.28125 53.078125 
z
" id="DejaVuSans-73"/>
      <path d="M 37.109375 75.984375 
L 37.109375 68.5 
L 28.515625 68.5 
Q 23.6875 68.5 21.796875 66.546875 
Q 19.921875 64.59375 19.921875 59.515625 
L 19.921875 54.6875 
L 34.71875 54.6875 
L 34.71875 47.703125 
L 19.921875 47.703125 
L 19.921875 0 
L 10.890625 0 
L 10.890625 47.703125 
L 2.296875 47.703125 
L 2.296875 54.6875 
L 10.890625 54.6875 
L 10.890625 58.5 
Q 10.890625 67.625 15.140625 71.796875 
Q 19.390625 75.984375 28.609375 75.984375 
z
" id="DejaVuSans-66"/>
      <path d="M 50.984375 -16.609375 
L 50.984375 -23.578125 
L -0.984375 -23.578125 
L -0.984375 -16.609375 
z
" id="DejaVuSans-5f"/>
      <path d="M 9.421875 75.984375 
L 18.40625 75.984375 
L 18.40625 0 
L 9.421875 0 
z
" id="DejaVuSans-6c"/>
     </defs>
     <g transform="translate(625.167187 142.250781)scale(0.1 -0.1)">
      <use xlink:href="#DejaVuSans-73"/>
      <use x="52.099609" xlink:href="#DejaVuSans-66"/>
      <use x="87.304688" xlink:href="#DejaVuSans-73"/>
      <use x="139.404297" xlink:href="#DejaVuSans-5f"/>
      <use x="189.404297" xlink:href="#DejaVuSans-6c"/>
      <use x="217.1875" xlink:href="#DejaVuSans-32"/>
      <use x="280.810547" xlink:href="#DejaVuSans-31"/>
     </g>
    </g>
    <g id="line2d_21">
     <path d="M 597.167187 153.707031 
L 617.167187 153.707031 
" style="fill:none;stroke:#ff7f0e;stroke-linecap:square;stroke-width:1.5;"/>
    </g>
    <g id="line2d_22">
     <g>
      <use style="fill:#ff7f0e;stroke:#ff7f0e;stroke-linejoin:miter;" x="607.167187" xlink:href="#m186ad768b6" y="153.707031"/>
     </g>
    </g>
    <g id="text_16">
     <!-- grafting -->
     <defs>
      <path d="M 45.40625 27.984375 
Q 45.40625 37.75 41.375 43.109375 
Q 37.359375 48.484375 30.078125 48.484375 
Q 22.859375 48.484375 18.828125 43.109375 
Q 14.796875 37.75 14.796875 27.984375 
Q 14.796875 18.265625 18.828125 12.890625 
Q 22.859375 7.515625 30.078125 7.515625 
Q 37.359375 7.515625 41.375 12.890625 
Q 45.40625 18.265625 45.40625 27.984375 
z
M 54.390625 6.78125 
Q 54.390625 -7.171875 48.1875 -13.984375 
Q 42 -20.796875 29.203125 -20.796875 
Q 24.46875 -20.796875 20.265625 -20.09375 
Q 16.0625 -19.390625 12.109375 -17.921875 
L 12.109375 -9.1875 
Q 16.0625 -11.328125 19.921875 -12.34375 
Q 23.78125 -13.375 27.78125 -13.375 
Q 36.625 -13.375 41.015625 -8.765625 
Q 45.40625 -4.15625 45.40625 5.171875 
L 45.40625 9.625 
Q 42.625 4.78125 38.28125 2.390625 
Q 33.9375 0 27.875 0 
Q 17.828125 0 11.671875 7.65625 
Q 5.515625 15.328125 5.515625 27.984375 
Q 5.515625 40.671875 11.671875 48.328125 
Q 17.828125 56 27.875 56 
Q 33.9375 56 38.28125 53.609375 
Q 42.625 51.21875 45.40625 46.390625 
L 45.40625 54.6875 
L 54.390625 54.6875 
z
" id="DejaVuSans-67"/>
     </defs>
     <g transform="translate(625.167187 157.207031)scale(0.1 -0.1)">
      <use xlink:href="#DejaVuSans-67"/>
      <use x="63.476562" xlink:href="#DejaVuSans-72"/>
      <use x="104.589844" xlink:href="#DejaVuSans-61"/>
      <use x="165.869141" xlink:href="#DejaVuSans-66"/>
      <use x="201.058594" xlink:href="#DejaVuSans-74"/>
      <use x="240.267578" xlink:href="#DejaVuSans-69"/>
      <use x="268.050781" xlink:href="#DejaVuSans-6e"/>
      <use x="331.429688" xlink:href="#DejaVuSans-67"/>
     </g>
    </g>
    <g id="line2d_23">
     <path d="M 597.167187 168.385156 
L 617.167187 168.385156 
" style="fill:none;stroke:#2ca02c;stroke-linecap:square;stroke-width:1.5;"/>
    </g>
    <g id="line2d_24">
     <g>
      <use style="fill:#2ca02c;stroke:#2ca02c;" x="607.167187" xlink:href="#m4fcc5b4d3d" y="168.385156"/>
     </g>
    </g>
    <g id="text_17">
     <!-- osfs -->
     <g transform="translate(625.167187 171.885156)scale(0.1 -0.1)">
      <use xlink:href="#DejaVuSans-6f"/>
      <use x="61.181641" xlink:href="#DejaVuSans-73"/>
      <use x="113.28125" xlink:href="#DejaVuSans-66"/>
      <use x="148.486328" xlink:href="#DejaVuSans-73"/>
     </g>
    </g>
    <g id="line2d_25">
     <path d="M 597.167187 183.063281 
L 617.167187 183.063281 
" style="fill:none;stroke:#d62728;stroke-linecap:square;stroke-width:1.5;"/>
    </g>
    <g id="line2d_26">
     <g>
      <use style="fill:#d62728;stroke:#d62728;stroke-linejoin:bevel;" x="607.167187" xlink:href="#mc2fdb3fb19" y="183.063281"/>
     </g>
    </g>
    <g id="text_18">
     <!-- osfs5 -->
     <g transform="translate(625.167187 186.563281)scale(0.1 -0.1)">
      <use xlink:href="#DejaVuSans-6f"/>
      <use x="61.181641" xlink:href="#DejaVuSans-73"/>
      <use x="113.28125" xlink:href="#DejaVuSans-66"/>
      <use x="148.486328" xlink:href="#DejaVuSans-73"/>
      <use x="200.585938" xlink:href="#DejaVuSans-35"/>
     </g>
    </g>
    <g id="line2d_27">
     <path d="M 597.167187 197.741406 
L 617.167187 197.741406 
" style="fill:none;stroke:#9467bd;stroke-linecap:square;stroke-width:1.5;"/>
    </g>
    <g id="line2d_28">
     <g>
      <use style="fill:#9467bd;stroke:#9467bd;" x="607.167187" xlink:href="#mb691d2ac31" y="197.741406"/>
     </g>
    </g>
    <g id="text_19">
     <!-- Alpha_investing -->
     <defs>
      <path d="M 34.1875 63.1875 
L 20.796875 26.90625 
L 47.609375 26.90625 
z
M 28.609375 72.90625 
L 39.796875 72.90625 
L 67.578125 0 
L 57.328125 0 
L 50.6875 18.703125 
L 17.828125 18.703125 
L 11.1875 0 
L 0.78125 0 
z
" id="DejaVuSans-41"/>
      <path d="M 18.109375 8.203125 
L 18.109375 -20.796875 
L 9.078125 -20.796875 
L 9.078125 54.6875 
L 18.109375 54.6875 
L 18.109375 46.390625 
Q 20.953125 51.265625 25.265625 53.625 
Q 29.59375 56 35.59375 56 
Q 45.5625 56 51.78125 48.09375 
Q 58.015625 40.1875 58.015625 27.296875 
Q 58.015625 14.40625 51.78125 6.484375 
Q 45.5625 -1.421875 35.59375 -1.421875 
Q 29.59375 -1.421875 25.265625 0.953125 
Q 20.953125 3.328125 18.109375 8.203125 
z
M 48.6875 27.296875 
Q 48.6875 37.203125 44.609375 42.84375 
Q 40.53125 48.484375 33.40625 48.484375 
Q 26.265625 48.484375 22.1875 42.84375 
Q 18.109375 37.203125 18.109375 27.296875 
Q 18.109375 17.390625 22.1875 11.75 
Q 26.265625 6.109375 33.40625 6.109375 
Q 40.53125 6.109375 44.609375 11.75 
Q 48.6875 17.390625 48.6875 27.296875 
z
" id="DejaVuSans-70"/>
      <path d="M 54.890625 33.015625 
L 54.890625 0 
L 45.90625 0 
L 45.90625 32.71875 
Q 45.90625 40.484375 42.875 44.328125 
Q 39.84375 48.1875 33.796875 48.1875 
Q 26.515625 48.1875 22.3125 43.546875 
Q 18.109375 38.921875 18.109375 30.90625 
L 18.109375 0 
L 9.078125 0 
L 9.078125 75.984375 
L 18.109375 75.984375 
L 18.109375 46.1875 
Q 21.34375 51.125 25.703125 53.5625 
Q 30.078125 56 35.796875 56 
Q 45.21875 56 50.046875 50.171875 
Q 54.890625 44.34375 54.890625 33.015625 
z
" id="DejaVuSans-68"/>
      <path d="M 2.984375 54.6875 
L 12.5 54.6875 
L 29.59375 8.796875 
L 46.6875 54.6875 
L 56.203125 54.6875 
L 35.6875 0 
L 23.484375 0 
z
" id="DejaVuSans-76"/>
     </defs>
     <g transform="translate(625.167187 201.241406)scale(0.1 -0.1)">
      <use xlink:href="#DejaVuSans-41"/>
      <use x="68.408203" xlink:href="#DejaVuSans-6c"/>
      <use x="96.191406" xlink:href="#DejaVuSans-70"/>
      <use x="159.667969" xlink:href="#DejaVuSans-68"/>
      <use x="223.046875" xlink:href="#DejaVuSans-61"/>
      <use x="284.326172" xlink:href="#DejaVuSans-5f"/>
      <use x="334.326172" xlink:href="#DejaVuSans-69"/>
      <use x="362.109375" xlink:href="#DejaVuSans-6e"/>
      <use x="425.488281" xlink:href="#DejaVuSans-76"/>
      <use x="484.667969" xlink:href="#DejaVuSans-65"/>
      <use x="546.191406" xlink:href="#DejaVuSans-73"/>
      <use x="598.291016" xlink:href="#DejaVuSans-74"/>
      <use x="637.5" xlink:href="#DejaVuSans-69"/>
      <use x="665.283203" xlink:href="#DejaVuSans-6e"/>
      <use x="728.662109" xlink:href="#DejaVuSans-67"/>
     </g>
    </g>
   </g>
  </g>
  <g id="axes_2">
   <g id="patch_8">
    <path d="M 43.78125 454.519219 
L 713.38125 454.519219 
L 713.38125 252.919219 
L 43.78125 252.919219 
z
" style="fill:#ffffff;"/>
   </g>
   <g id="matplotlib.axis_3">
    <g id="xtick_7">
     <g id="line2d_29">
      <g>
       <use style="stroke:#000000;stroke-width:0.8;" x="43.78125" xlink:href="#mdfb31de47e" y="454.519219"/>
      </g>
     </g>
     <g id="text_20">
      <!-- 0 -->
      <g transform="translate(40.6 469.117656)scale(0.1 -0.1)">
       <use xlink:href="#DejaVuSans-30"/>
      </g>
     </g>
    </g>
    <g id="xtick_8">
     <g id="line2d_30">
      <g>
       <use style="stroke:#000000;stroke-width:0.8;" x="165.526705" xlink:href="#mdfb31de47e" y="454.519219"/>
      </g>
     </g>
     <g id="text_21">
      <!-- 2 -->
      <g transform="translate(162.345455 469.117656)scale(0.1 -0.1)">
       <use xlink:href="#DejaVuSans-32"/>
      </g>
     </g>
    </g>
    <g id="xtick_9">
     <g id="line2d_31">
      <g>
       <use style="stroke:#000000;stroke-width:0.8;" x="287.272159" xlink:href="#mdfb31de47e" y="454.519219"/>
      </g>
     </g>
     <g id="text_22">
      <!-- 4 -->
      <g transform="translate(284.090909 469.117656)scale(0.1 -0.1)">
       <use xlink:href="#DejaVuSans-34"/>
      </g>
     </g>
    </g>
    <g id="xtick_10">
     <g id="line2d_32">
      <g>
       <use style="stroke:#000000;stroke-width:0.8;" x="409.017614" xlink:href="#mdfb31de47e" y="454.519219"/>
      </g>
     </g>
     <g id="text_23">
      <!-- 6 -->
      <g transform="translate(405.836364 469.117656)scale(0.1 -0.1)">
       <use xlink:href="#DejaVuSans-36"/>
      </g>
     </g>
    </g>
    <g id="xtick_11">
     <g id="line2d_33">
      <g>
       <use style="stroke:#000000;stroke-width:0.8;" x="530.763068" xlink:href="#mdfb31de47e" y="454.519219"/>
      </g>
     </g>
     <g id="text_24">
      <!-- 8 -->
      <g transform="translate(527.581818 469.117656)scale(0.1 -0.1)">
       <use xlink:href="#DejaVuSans-38"/>
      </g>
     </g>
    </g>
    <g id="xtick_12">
     <g id="line2d_34">
      <g>
       <use style="stroke:#000000;stroke-width:0.8;" x="652.508523" xlink:href="#mdfb31de47e" y="454.519219"/>
      </g>
     </g>
     <g id="text_25">
      <!-- 10 -->
      <g transform="translate(646.146023 469.117656)scale(0.1 -0.1)">
       <use xlink:href="#DejaVuSans-31"/>
       <use x="63.623047" xlink:href="#DejaVuSans-30"/>
      </g>
     </g>
    </g>
    <g id="text_26">
     <!-- datasets -->
     <g transform="translate(357.072656 482.795781)scale(0.1 -0.1)">
      <use xlink:href="#DejaVuSans-64"/>
      <use x="63.476562" xlink:href="#DejaVuSans-61"/>
      <use x="124.755859" xlink:href="#DejaVuSans-74"/>
      <use x="163.964844" xlink:href="#DejaVuSans-61"/>
      <use x="225.244141" xlink:href="#DejaVuSans-73"/>
      <use x="277.34375" xlink:href="#DejaVuSans-65"/>
      <use x="338.867188" xlink:href="#DejaVuSans-74"/>
      <use x="378.076172" xlink:href="#DejaVuSans-73"/>
     </g>
    </g>
   </g>
   <g id="matplotlib.axis_4">
    <g id="ytick_8">
     <g id="line2d_35">
      <g>
       <use style="stroke:#000000;stroke-width:0.8;" x="43.78125" xlink:href="#m499f1a9439" y="454.519219"/>
      </g>
     </g>
     <g id="text_27">
      <!-- 0 -->
      <g transform="translate(30.41875 458.318437)scale(0.1 -0.1)">
       <use xlink:href="#DejaVuSans-30"/>
      </g>
     </g>
    </g>
    <g id="ytick_9">
     <g id="line2d_36">
      <g>
       <use style="stroke:#000000;stroke-width:0.8;" x="43.78125" xlink:href="#m499f1a9439" y="420.919219"/>
      </g>
     </g>
     <g id="text_28">
      <!-- 10 -->
      <g transform="translate(24.05625 424.718437)scale(0.1 -0.1)">
       <use xlink:href="#DejaVuSans-31"/>
       <use x="63.623047" xlink:href="#DejaVuSans-30"/>
      </g>
     </g>
    </g>
    <g id="ytick_10">
     <g id="line2d_37">
      <g>
       <use style="stroke:#000000;stroke-width:0.8;" x="43.78125" xlink:href="#m499f1a9439" y="387.319219"/>
      </g>
     </g>
     <g id="text_29">
      <!-- 20 -->
      <g transform="translate(24.05625 391.118437)scale(0.1 -0.1)">
       <use xlink:href="#DejaVuSans-32"/>
       <use x="63.623047" xlink:href="#DejaVuSans-30"/>
      </g>
     </g>
    </g>
    <g id="ytick_11">
     <g id="line2d_38">
      <g>
       <use style="stroke:#000000;stroke-width:0.8;" x="43.78125" xlink:href="#m499f1a9439" y="353.719219"/>
      </g>
     </g>
     <g id="text_30">
      <!-- 30 -->
      <defs>
       <path d="M 40.578125 39.3125 
Q 47.65625 37.796875 51.625 33 
Q 55.609375 28.21875 55.609375 21.1875 
Q 55.609375 10.40625 48.1875 4.484375 
Q 40.765625 -1.421875 27.09375 -1.421875 
Q 22.515625 -1.421875 17.65625 -0.515625 
Q 12.796875 0.390625 7.625 2.203125 
L 7.625 11.71875 
Q 11.71875 9.328125 16.59375 8.109375 
Q 21.484375 6.890625 26.8125 6.890625 
Q 36.078125 6.890625 40.9375 10.546875 
Q 45.796875 14.203125 45.796875 21.1875 
Q 45.796875 27.640625 41.28125 31.265625 
Q 36.765625 34.90625 28.71875 34.90625 
L 20.21875 34.90625 
L 20.21875 43.015625 
L 29.109375 43.015625 
Q 36.375 43.015625 40.234375 45.921875 
Q 44.09375 48.828125 44.09375 54.296875 
Q 44.09375 59.90625 40.109375 62.90625 
Q 36.140625 65.921875 28.71875 65.921875 
Q 24.65625 65.921875 20.015625 65.03125 
Q 15.375 64.15625 9.8125 62.3125 
L 9.8125 71.09375 
Q 15.4375 72.65625 20.34375 73.4375 
Q 25.25 74.21875 29.59375 74.21875 
Q 40.828125 74.21875 47.359375 69.109375 
Q 53.90625 64.015625 53.90625 55.328125 
Q 53.90625 49.265625 50.4375 45.09375 
Q 46.96875 40.921875 40.578125 39.3125 
z
" id="DejaVuSans-33"/>
      </defs>
      <g transform="translate(24.05625 357.518437)scale(0.1 -0.1)">
       <use xlink:href="#DejaVuSans-33"/>
       <use x="63.623047" xlink:href="#DejaVuSans-30"/>
      </g>
     </g>
    </g>
    <g id="ytick_12">
     <g id="line2d_39">
      <g>
       <use style="stroke:#000000;stroke-width:0.8;" x="43.78125" xlink:href="#m499f1a9439" y="320.119219"/>
      </g>
     </g>
     <g id="text_31">
      <!-- 40 -->
      <g transform="translate(24.05625 323.918437)scale(0.1 -0.1)">
       <use xlink:href="#DejaVuSans-34"/>
       <use x="63.623047" xlink:href="#DejaVuSans-30"/>
      </g>
     </g>
    </g>
    <g id="ytick_13">
     <g id="line2d_40">
      <g>
       <use style="stroke:#000000;stroke-width:0.8;" x="43.78125" xlink:href="#m499f1a9439" y="286.519219"/>
      </g>
     </g>
     <g id="text_32">
      <!-- 50 -->
      <g transform="translate(24.05625 290.318437)scale(0.1 -0.1)">
       <use xlink:href="#DejaVuSans-35"/>
       <use x="63.623047" xlink:href="#DejaVuSans-30"/>
      </g>
     </g>
    </g>
    <g id="ytick_14">
     <g id="line2d_41">
      <g>
       <use style="stroke:#000000;stroke-width:0.8;" x="43.78125" xlink:href="#m499f1a9439" y="252.919219"/>
      </g>
     </g>
     <g id="text_33">
      <!-- 60 -->
      <g transform="translate(24.05625 256.718437)scale(0.1 -0.1)">
       <use xlink:href="#DejaVuSans-36"/>
       <use x="63.623047" xlink:href="#DejaVuSans-30"/>
      </g>
     </g>
    </g>
    <g id="text_34">
     <!-- The number of selected features -->
     <defs>
      <path d="M -0.296875 72.90625 
L 61.375 72.90625 
L 61.375 64.59375 
L 35.5 64.59375 
L 35.5 0 
L 25.59375 0 
L 25.59375 64.59375 
L -0.296875 64.59375 
z
" id="DejaVuSans-54"/>
      <path d="M 52 44.1875 
Q 55.375 50.25 60.0625 53.125 
Q 64.75 56 71.09375 56 
Q 79.640625 56 84.28125 50.015625 
Q 88.921875 44.046875 88.921875 33.015625 
L 88.921875 0 
L 79.890625 0 
L 79.890625 32.71875 
Q 79.890625 40.578125 77.09375 44.375 
Q 74.3125 48.1875 68.609375 48.1875 
Q 61.625 48.1875 57.5625 43.546875 
Q 53.515625 38.921875 53.515625 30.90625 
L 53.515625 0 
L 44.484375 0 
L 44.484375 32.71875 
Q 44.484375 40.625 41.703125 44.40625 
Q 38.921875 48.1875 33.109375 48.1875 
Q 26.21875 48.1875 22.15625 43.53125 
Q 18.109375 38.875 18.109375 30.90625 
L 18.109375 0 
L 9.078125 0 
L 9.078125 54.6875 
L 18.109375 54.6875 
L 18.109375 46.1875 
Q 21.1875 51.21875 25.484375 53.609375 
Q 29.78125 56 35.6875 56 
Q 41.65625 56 45.828125 52.96875 
Q 50 49.953125 52 44.1875 
z
" id="DejaVuSans-6d"/>
      <path d="M 48.6875 27.296875 
Q 48.6875 37.203125 44.609375 42.84375 
Q 40.53125 48.484375 33.40625 48.484375 
Q 26.265625 48.484375 22.1875 42.84375 
Q 18.109375 37.203125 18.109375 27.296875 
Q 18.109375 17.390625 22.1875 11.75 
Q 26.265625 6.109375 33.40625 6.109375 
Q 40.53125 6.109375 44.609375 11.75 
Q 48.6875 17.390625 48.6875 27.296875 
z
M 18.109375 46.390625 
Q 20.953125 51.265625 25.265625 53.625 
Q 29.59375 56 35.59375 56 
Q 45.5625 56 51.78125 48.09375 
Q 58.015625 40.1875 58.015625 27.296875 
Q 58.015625 14.40625 51.78125 6.484375 
Q 45.5625 -1.421875 35.59375 -1.421875 
Q 29.59375 -1.421875 25.265625 0.953125 
Q 20.953125 3.328125 18.109375 8.203125 
L 18.109375 0 
L 9.078125 0 
L 9.078125 75.984375 
L 18.109375 75.984375 
z
" id="DejaVuSans-62"/>
     </defs>
     <g transform="translate(17.976563 435.580156)rotate(-90)scale(0.1 -0.1)">
      <use xlink:href="#DejaVuSans-54"/>
      <use x="61.083984" xlink:href="#DejaVuSans-68"/>
      <use x="124.462891" xlink:href="#DejaVuSans-65"/>
      <use x="185.986328" xlink:href="#DejaVuSans-20"/>
      <use x="217.773438" xlink:href="#DejaVuSans-6e"/>
      <use x="281.152344" xlink:href="#DejaVuSans-75"/>
      <use x="344.53125" xlink:href="#DejaVuSans-6d"/>
      <use x="441.943359" xlink:href="#DejaVuSans-62"/>
      <use x="505.419922" xlink:href="#DejaVuSans-65"/>
      <use x="566.943359" xlink:href="#DejaVuSans-72"/>
      <use x="608.056641" xlink:href="#DejaVuSans-20"/>
      <use x="639.84375" xlink:href="#DejaVuSans-6f"/>
      <use x="701.025391" xlink:href="#DejaVuSans-66"/>
      <use x="736.230469" xlink:href="#DejaVuSans-20"/>
      <use x="768.017578" xlink:href="#DejaVuSans-73"/>
      <use x="820.117188" xlink:href="#DejaVuSans-65"/>
      <use x="881.640625" xlink:href="#DejaVuSans-6c"/>
      <use x="909.423828" xlink:href="#DejaVuSans-65"/>
      <use x="970.947266" xlink:href="#DejaVuSans-63"/>
      <use x="1025.927734" xlink:href="#DejaVuSans-74"/>
      <use x="1065.136719" xlink:href="#DejaVuSans-65"/>
      <use x="1126.660156" xlink:href="#DejaVuSans-64"/>
      <use x="1190.136719" xlink:href="#DejaVuSans-20"/>
      <use x="1221.923828" xlink:href="#DejaVuSans-66"/>
      <use x="1257.128906" xlink:href="#DejaVuSans-65"/>
      <use x="1318.652344" xlink:href="#DejaVuSans-61"/>
      <use x="1379.931641" xlink:href="#DejaVuSans-74"/>
      <use x="1419.140625" xlink:href="#DejaVuSans-75"/>
      <use x="1482.519531" xlink:href="#DejaVuSans-72"/>
      <use x="1523.601562" xlink:href="#DejaVuSans-65"/>
      <use x="1585.125" xlink:href="#DejaVuSans-73"/>
     </g>
    </g>
   </g>
   <g id="line2d_42">
    <path clip-path="url(#p8427ddc89d)" d="M 43.78125 387.319219 
L 104.653977 427.639219 
L 165.526705 367.159219 
L 226.399432 394.039219 
L 287.272159 417.559219 
L 348.144886 373.879219 
L 409.017614 333.559219 
L 469.890341 407.479219 
L 530.763068 430.999219 
L 591.635795 420.919219 
L 652.508523 397.399219 
L 713.38125 434.359219 
" style="fill:none;stroke:#1f77b4;stroke-linecap:square;stroke-width:1.5;"/>
    <g clip-path="url(#p8427ddc89d)">
     <use style="fill:#1f77b4;stroke:#1f77b4;" x="43.78125" xlink:href="#m3e8eab54e7" y="387.319219"/>
     <use style="fill:#1f77b4;stroke:#1f77b4;" x="104.653977" xlink:href="#m3e8eab54e7" y="427.639219"/>
     <use style="fill:#1f77b4;stroke:#1f77b4;" x="165.526705" xlink:href="#m3e8eab54e7" y="367.159219"/>
     <use style="fill:#1f77b4;stroke:#1f77b4;" x="226.399432" xlink:href="#m3e8eab54e7" y="394.039219"/>
     <use style="fill:#1f77b4;stroke:#1f77b4;" x="287.272159" xlink:href="#m3e8eab54e7" y="417.559219"/>
     <use style="fill:#1f77b4;stroke:#1f77b4;" x="348.144886" xlink:href="#m3e8eab54e7" y="373.879219"/>
     <use style="fill:#1f77b4;stroke:#1f77b4;" x="409.017614" xlink:href="#m3e8eab54e7" y="333.559219"/>
     <use style="fill:#1f77b4;stroke:#1f77b4;" x="469.890341" xlink:href="#m3e8eab54e7" y="407.479219"/>
     <use style="fill:#1f77b4;stroke:#1f77b4;" x="530.763068" xlink:href="#m3e8eab54e7" y="430.999219"/>
     <use style="fill:#1f77b4;stroke:#1f77b4;" x="591.635795" xlink:href="#m3e8eab54e7" y="420.919219"/>
     <use style="fill:#1f77b4;stroke:#1f77b4;" x="652.508523" xlink:href="#m3e8eab54e7" y="397.399219"/>
     <use style="fill:#1f77b4;stroke:#1f77b4;" x="713.38125" xlink:href="#m3e8eab54e7" y="434.359219"/>
    </g>
   </g>
   <g id="line2d_43">
    <path clip-path="url(#p8427ddc89d)" d="M 43.78125 353.719219 
L 104.653977 367.159219 
L 165.526705 430.999219 
L 226.399432 407.479219 
L 287.272159 390.679219 
L 348.144886 424.279219 
L 409.017614 377.239219 
L 469.890341 410.839219 
L 530.763068 430.999219 
L 591.635795 357.079219 
L 652.508523 383.959219 
L 713.38125 430.999219 
" style="fill:none;stroke:#ff7f0e;stroke-linecap:square;stroke-width:1.5;"/>
    <g clip-path="url(#p8427ddc89d)">
     <use style="fill:#ff7f0e;stroke:#ff7f0e;stroke-linejoin:miter;" x="43.78125" xlink:href="#m186ad768b6" y="353.719219"/>
     <use style="fill:#ff7f0e;stroke:#ff7f0e;stroke-linejoin:miter;" x="104.653977" xlink:href="#m186ad768b6" y="367.159219"/>
     <use style="fill:#ff7f0e;stroke:#ff7f0e;stroke-linejoin:miter;" x="165.526705" xlink:href="#m186ad768b6" y="430.999219"/>
     <use style="fill:#ff7f0e;stroke:#ff7f0e;stroke-linejoin:miter;" x="226.399432" xlink:href="#m186ad768b6" y="407.479219"/>
     <use style="fill:#ff7f0e;stroke:#ff7f0e;stroke-linejoin:miter;" x="287.272159" xlink:href="#m186ad768b6" y="390.679219"/>
     <use style="fill:#ff7f0e;stroke:#ff7f0e;stroke-linejoin:miter;" x="348.144886" xlink:href="#m186ad768b6" y="424.279219"/>
     <use style="fill:#ff7f0e;stroke:#ff7f0e;stroke-linejoin:miter;" x="409.017614" xlink:href="#m186ad768b6" y="377.239219"/>
     <use style="fill:#ff7f0e;stroke:#ff7f0e;stroke-linejoin:miter;" x="469.890341" xlink:href="#m186ad768b6" y="410.839219"/>
     <use style="fill:#ff7f0e;stroke:#ff7f0e;stroke-linejoin:miter;" x="530.763068" xlink:href="#m186ad768b6" y="430.999219"/>
     <use style="fill:#ff7f0e;stroke:#ff7f0e;stroke-linejoin:miter;" x="591.635795" xlink:href="#m186ad768b6" y="357.079219"/>
     <use style="fill:#ff7f0e;stroke:#ff7f0e;stroke-linejoin:miter;" x="652.508523" xlink:href="#m186ad768b6" y="383.959219"/>
     <use style="fill:#ff7f0e;stroke:#ff7f0e;stroke-linejoin:miter;" x="713.38125" xlink:href="#m186ad768b6" y="430.999219"/>
    </g>
   </g>
   <g id="line2d_44">
    <path clip-path="url(#p8427ddc89d)" d="M 43.78125 444.439219 
L 104.653977 434.359219 
L 165.526705 437.719219 
L 226.399432 437.719219 
L 287.272159 434.359219 
L 348.144886 437.719219 
L 409.017614 417.559219 
L 469.890341 444.439219 
L 530.763068 441.079219 
L 591.635795 424.279219 
L 652.508523 441.079219 
L 713.38125 434.359219 
" style="fill:none;stroke:#2ca02c;stroke-linecap:square;stroke-width:1.5;"/>
    <g clip-path="url(#p8427ddc89d)">
     <use style="fill:#2ca02c;stroke:#2ca02c;" x="43.78125" xlink:href="#m4fcc5b4d3d" y="444.439219"/>
     <use style="fill:#2ca02c;stroke:#2ca02c;" x="104.653977" xlink:href="#m4fcc5b4d3d" y="434.359219"/>
     <use style="fill:#2ca02c;stroke:#2ca02c;" x="165.526705" xlink:href="#m4fcc5b4d3d" y="437.719219"/>
     <use style="fill:#2ca02c;stroke:#2ca02c;" x="226.399432" xlink:href="#m4fcc5b4d3d" y="437.719219"/>
     <use style="fill:#2ca02c;stroke:#2ca02c;" x="287.272159" xlink:href="#m4fcc5b4d3d" y="434.359219"/>
     <use style="fill:#2ca02c;stroke:#2ca02c;" x="348.144886" xlink:href="#m4fcc5b4d3d" y="437.719219"/>
     <use style="fill:#2ca02c;stroke:#2ca02c;" x="409.017614" xlink:href="#m4fcc5b4d3d" y="417.559219"/>
     <use style="fill:#2ca02c;stroke:#2ca02c;" x="469.890341" xlink:href="#m4fcc5b4d3d" y="444.439219"/>
     <use style="fill:#2ca02c;stroke:#2ca02c;" x="530.763068" xlink:href="#m4fcc5b4d3d" y="441.079219"/>
     <use style="fill:#2ca02c;stroke:#2ca02c;" x="591.635795" xlink:href="#m4fcc5b4d3d" y="424.279219"/>
     <use style="fill:#2ca02c;stroke:#2ca02c;" x="652.508523" xlink:href="#m4fcc5b4d3d" y="441.079219"/>
     <use style="fill:#2ca02c;stroke:#2ca02c;" x="713.38125" xlink:href="#m4fcc5b4d3d" y="434.359219"/>
    </g>
   </g>
   <g id="line2d_45">
    <path clip-path="url(#p8427ddc89d)" d="M 43.78125 424.279219 
L 104.653977 430.999219 
L 165.526705 400.759219 
L 226.399432 430.999219 
L 287.272159 427.639219 
L 348.144886 427.639219 
L 409.017614 400.759219 
L 469.890341 444.439219 
L 530.763068 437.719219 
L 591.635795 414.199219 
L 652.508523 434.359219 
L 713.38125 434.359219 
" style="fill:none;stroke:#d62728;stroke-linecap:square;stroke-width:1.5;"/>
    <g clip-path="url(#p8427ddc89d)">
     <use style="fill:#d62728;stroke:#d62728;stroke-linejoin:bevel;" x="43.78125" xlink:href="#mc2fdb3fb19" y="424.279219"/>
     <use style="fill:#d62728;stroke:#d62728;stroke-linejoin:bevel;" x="104.653977" xlink:href="#mc2fdb3fb19" y="430.999219"/>
     <use style="fill:#d62728;stroke:#d62728;stroke-linejoin:bevel;" x="165.526705" xlink:href="#mc2fdb3fb19" y="400.759219"/>
     <use style="fill:#d62728;stroke:#d62728;stroke-linejoin:bevel;" x="226.399432" xlink:href="#mc2fdb3fb19" y="430.999219"/>
     <use style="fill:#d62728;stroke:#d62728;stroke-linejoin:bevel;" x="287.272159" xlink:href="#mc2fdb3fb19" y="427.639219"/>
     <use style="fill:#d62728;stroke:#d62728;stroke-linejoin:bevel;" x="348.144886" xlink:href="#mc2fdb3fb19" y="427.639219"/>
     <use style="fill:#d62728;stroke:#d62728;stroke-linejoin:bevel;" x="409.017614" xlink:href="#mc2fdb3fb19" y="400.759219"/>
     <use style="fill:#d62728;stroke:#d62728;stroke-linejoin:bevel;" x="469.890341" xlink:href="#mc2fdb3fb19" y="444.439219"/>
     <use style="fill:#d62728;stroke:#d62728;stroke-linejoin:bevel;" x="530.763068" xlink:href="#mc2fdb3fb19" y="437.719219"/>
     <use style="fill:#d62728;stroke:#d62728;stroke-linejoin:bevel;" x="591.635795" xlink:href="#mc2fdb3fb19" y="414.199219"/>
     <use style="fill:#d62728;stroke:#d62728;stroke-linejoin:bevel;" x="652.508523" xlink:href="#mc2fdb3fb19" y="434.359219"/>
     <use style="fill:#d62728;stroke:#d62728;stroke-linejoin:bevel;" x="713.38125" xlink:href="#mc2fdb3fb19" y="434.359219"/>
    </g>
   </g>
   <g id="line2d_46">
    <path clip-path="url(#p8427ddc89d)" d="M 43.78125 303.319219 
L 104.653977 451.159219 
L 165.526705 434.359219 
L 226.399432 441.079219 
L 287.272159 451.159219 
L 348.144886 363.799219 
L 409.017614 303.319219 
L 469.890341 441.079219 
L 530.763068 414.199219 
L 591.635795 316.759219 
L 652.508523 367.159219 
" style="fill:none;stroke:#9467bd;stroke-linecap:square;stroke-width:1.5;"/>
    <g clip-path="url(#p8427ddc89d)">
     <use style="fill:#9467bd;stroke:#9467bd;" x="43.78125" xlink:href="#mb691d2ac31" y="303.319219"/>
     <use style="fill:#9467bd;stroke:#9467bd;" x="104.653977" xlink:href="#mb691d2ac31" y="451.159219"/>
     <use style="fill:#9467bd;stroke:#9467bd;" x="165.526705" xlink:href="#mb691d2ac31" y="434.359219"/>
     <use style="fill:#9467bd;stroke:#9467bd;" x="226.399432" xlink:href="#mb691d2ac31" y="441.079219"/>
     <use style="fill:#9467bd;stroke:#9467bd;" x="287.272159" xlink:href="#mb691d2ac31" y="451.159219"/>
     <use style="fill:#9467bd;stroke:#9467bd;" x="348.144886" xlink:href="#mb691d2ac31" y="363.799219"/>
     <use style="fill:#9467bd;stroke:#9467bd;" x="409.017614" xlink:href="#mb691d2ac31" y="303.319219"/>
     <use style="fill:#9467bd;stroke:#9467bd;" x="469.890341" xlink:href="#mb691d2ac31" y="441.079219"/>
     <use style="fill:#9467bd;stroke:#9467bd;" x="530.763068" xlink:href="#mb691d2ac31" y="414.199219"/>
     <use style="fill:#9467bd;stroke:#9467bd;" x="591.635795" xlink:href="#mb691d2ac31" y="316.759219"/>
     <use style="fill:#9467bd;stroke:#9467bd;" x="652.508523" xlink:href="#mb691d2ac31" y="367.159219"/>
    </g>
   </g>
   <g id="patch_9">
    <path d="M 43.78125 454.519219 
L 43.78125 252.919219 
" style="fill:none;stroke:#000000;stroke-linecap:square;stroke-linejoin:miter;stroke-width:0.8;"/>
   </g>
   <g id="patch_10">
    <path d="M 713.38125 454.519219 
L 713.38125 252.919219 
" style="fill:none;stroke:#000000;stroke-linecap:square;stroke-linejoin:miter;stroke-width:0.8;"/>
   </g>
   <g id="patch_11">
    <path d="M 43.78125 454.519219 
L 713.38125 454.519219 
" style="fill:none;stroke:#000000;stroke-linecap:square;stroke-linejoin:miter;stroke-width:0.8;"/>
   </g>
   <g id="patch_12">
    <path d="M 43.78125 252.919219 
L 713.38125 252.919219 
" style="fill:none;stroke:#000000;stroke-linecap:square;stroke-linejoin:miter;stroke-width:0.8;"/>
   </g>
   <g id="legend_2">
    <g id="patch_13">
     <path d="M 595.167187 334.866094 
L 706.38125 334.866094 
Q 708.38125 334.866094 708.38125 332.866094 
L 708.38125 259.919219 
Q 708.38125 257.919219 706.38125 257.919219 
L 595.167187 257.919219 
Q 593.167187 257.919219 593.167187 259.919219 
L 593.167187 332.866094 
Q 593.167187 334.866094 595.167187 334.866094 
z
" style="fill:#ffffff;opacity:0.8;stroke:#cccccc;stroke-linejoin:miter;"/>
    </g>
    <g id="line2d_47">
     <path d="M 597.167187 266.017656 
L 617.167187 266.017656 
" style="fill:none;stroke:#1f77b4;stroke-linecap:square;stroke-width:1.5;"/>
    </g>
    <g id="line2d_48">
     <g>
      <use style="fill:#1f77b4;stroke:#1f77b4;" x="607.167187" xlink:href="#m3e8eab54e7" y="266.017656"/>
     </g>
    </g>
    <g id="text_35">
     <!-- sfs_l21 -->
     <g transform="translate(625.167187 269.517656)scale(0.1 -0.1)">
      <use xlink:href="#DejaVuSans-73"/>
      <use x="52.099609" xlink:href="#DejaVuSans-66"/>
      <use x="87.304688" xlink:href="#DejaVuSans-73"/>
      <use x="139.404297" xlink:href="#DejaVuSans-5f"/>
      <use x="189.404297" xlink:href="#DejaVuSans-6c"/>
      <use x="217.1875" xlink:href="#DejaVuSans-32"/>
      <use x="280.810547" xlink:href="#DejaVuSans-31"/>
     </g>
    </g>
    <g id="line2d_49">
     <path d="M 597.167187 280.973906 
L 617.167187 280.973906 
" style="fill:none;stroke:#ff7f0e;stroke-linecap:square;stroke-width:1.5;"/>
    </g>
    <g id="line2d_50">
     <g>
      <use style="fill:#ff7f0e;stroke:#ff7f0e;stroke-linejoin:miter;" x="607.167187" xlink:href="#m186ad768b6" y="280.973906"/>
     </g>
    </g>
    <g id="text_36">
     <!-- grafting -->
     <g transform="translate(625.167187 284.473906)scale(0.1 -0.1)">
      <use xlink:href="#DejaVuSans-67"/>
      <use x="63.476562" xlink:href="#DejaVuSans-72"/>
      <use x="104.589844" xlink:href="#DejaVuSans-61"/>
      <use x="165.869141" xlink:href="#DejaVuSans-66"/>
      <use x="201.058594" xlink:href="#DejaVuSans-74"/>
      <use x="240.267578" xlink:href="#DejaVuSans-69"/>
      <use x="268.050781" xlink:href="#DejaVuSans-6e"/>
      <use x="331.429688" xlink:href="#DejaVuSans-67"/>
     </g>
    </g>
    <g id="line2d_51">
     <path d="M 597.167187 295.652031 
L 617.167187 295.652031 
" style="fill:none;stroke:#2ca02c;stroke-linecap:square;stroke-width:1.5;"/>
    </g>
    <g id="line2d_52">
     <g>
      <use style="fill:#2ca02c;stroke:#2ca02c;" x="607.167187" xlink:href="#m4fcc5b4d3d" y="295.652031"/>
     </g>
    </g>
    <g id="text_37">
     <!-- osfs -->
     <g transform="translate(625.167187 299.152031)scale(0.1 -0.1)">
      <use xlink:href="#DejaVuSans-6f"/>
      <use x="61.181641" xlink:href="#DejaVuSans-73"/>
      <use x="113.28125" xlink:href="#DejaVuSans-66"/>
      <use x="148.486328" xlink:href="#DejaVuSans-73"/>
     </g>
    </g>
    <g id="line2d_53">
     <path d="M 597.167187 310.330156 
L 617.167187 310.330156 
" style="fill:none;stroke:#d62728;stroke-linecap:square;stroke-width:1.5;"/>
    </g>
    <g id="line2d_54">
     <g>
      <use style="fill:#d62728;stroke:#d62728;stroke-linejoin:bevel;" x="607.167187" xlink:href="#mc2fdb3fb19" y="310.330156"/>
     </g>
    </g>
    <g id="text_38">
     <!-- osfs5 -->
     <g transform="translate(625.167187 313.830156)scale(0.1 -0.1)">
      <use xlink:href="#DejaVuSans-6f"/>
      <use x="61.181641" xlink:href="#DejaVuSans-73"/>
      <use x="113.28125" xlink:href="#DejaVuSans-66"/>
      <use x="148.486328" xlink:href="#DejaVuSans-73"/>
      <use x="200.585938" xlink:href="#DejaVuSans-35"/>
     </g>
    </g>
    <g id="line2d_55">
     <path d="M 597.167187 325.008281 
L 617.167187 325.008281 
" style="fill:none;stroke:#9467bd;stroke-linecap:square;stroke-width:1.5;"/>
    </g>
    <g id="line2d_56">
     <g>
      <use style="fill:#9467bd;stroke:#9467bd;" x="607.167187" xlink:href="#mb691d2ac31" y="325.008281"/>
     </g>
    </g>
    <g id="text_39">
     <!-- Alpha_investing -->
     <g transform="translate(625.167187 328.508281)scale(0.1 -0.1)">
      <use xlink:href="#DejaVuSans-41"/>
      <use x="68.408203" xlink:href="#DejaVuSans-6c"/>
      <use x="96.191406" xlink:href="#DejaVuSans-70"/>
      <use x="159.667969" xlink:href="#DejaVuSans-68"/>
      <use x="223.046875" xlink:href="#DejaVuSans-61"/>
      <use x="284.326172" xlink:href="#DejaVuSans-5f"/>
      <use x="334.326172" xlink:href="#DejaVuSans-69"/>
      <use x="362.109375" xlink:href="#DejaVuSans-6e"/>
      <use x="425.488281" xlink:href="#DejaVuSans-76"/>
      <use x="484.667969" xlink:href="#DejaVuSans-65"/>
      <use x="546.191406" xlink:href="#DejaVuSans-73"/>
      <use x="598.291016" xlink:href="#DejaVuSans-74"/>
      <use x="637.5" xlink:href="#DejaVuSans-69"/>
      <use x="665.283203" xlink:href="#DejaVuSans-6e"/>
      <use x="728.662109" xlink:href="#DejaVuSans-67"/>
     </g>
    </g>
   </g>
  </g>
 </g>
 <defs>
  <clipPath id="pa537737fe9">
   <rect height="201.6" width="669.6" x="43.78125" y="10.999219"/>
  </clipPath>
  <clipPath id="p8427ddc89d">
   <rect height="201.6" width="669.6" x="43.78125" y="252.919219"/>
  </clipPath>
 </defs>
</svg>
